<svg version="1.1" xmlns="http://www.w3.org/2000/svg" xmlns:xlink="http://www.w3.org/1999/xlink" width="703" height="999"><desc>title%20Login%20Sequence%20Diagram%0A%0A%0Aactor%20User%0Aparticipant%20Front%20End%0Adatabase%20Back%20End%0A%0AUser-%3EFront%20End%3AVisit%0Aactivate%20Front%20End%0AUser%3C--Front%20End%3ADisplay%20Login%20Page%0AUser-%3EFront%20End%3AUser%20Enters%20Credentials%0AFront%20End-%3EBack%20End%3ACheck%20Credentials%0Aactivate%20Back%20End%0A%0Aalt%20%20Right%20Credentials%20%0AFront%20End%3C--Back%20End%3ACredentials%20is%20matched%0Adeactivate%20Back%20End%0AUser%3C--Front%20End%3Aloged%20In%0A%0A%0Aelse%20%20Wrong%20Credentials%20%26%20Trials%20%3C%203%20%0Anote%20over%20Back%20End%3ATrials%20%3C%203%0Aactivate%20Back%20End%0ABack%20End%3C-Back%20End%20%3ATrials%20plus%20one%0AFront%20End%3C--Back%20End%3ACredentials%20isn't%20matched%0Adeactivate%20Back%20End%0AUser%3C--Front%20End%3AWrong!%20Check%20Your%20Credentials%0Aelse%20%20Trials%20is%20equal%203%20%0Anote%20over%20Back%20End%3ATrials%20%3D%203%0Aactivate%20Back%20End%0A%0AFront%20End%3C--Back%20End%3ALocked%20Account%0Adeactivate%20Back%20End%0AUser%3C--Front%20End%3AYour%20Account%20is%20Locked%0Aend%0Adeactivate%20Front%20End</desc><defs/><g><g/><g/><g/><g/><g/><g/><g/><g/><g/><g/><g/><g/><g/><g><rect fill="white" stroke="none" x="0" y="0" width="703" height="999"/></g><g><text fill="black" stroke="none" font-family="sans-serif" font-size="16.5pt" font-style="normal" font-weight="normal" text-decoration="normal" x="227.38337929440104" y="24.50280495" text-anchor="start" dominant-baseline="alphabetic" xml:space="preserve">Login Sequence Diagram</text></g><g/><g><path fill="none" stroke="black" paint-order="fill stroke markers" d=" M 73.50841485 128.884754037 L 73.50841485 999.5510899269998" stroke-miterlimit="10" stroke-width="1.3612669416666667" stroke-dasharray="12.565541,5.445067766666667"/><path fill="none" stroke="black" paint-order="fill stroke markers" d=" M 329.7676255278646 128.884754037 L 329.7676255278646 999.5510899269998" stroke-miterlimit="10" stroke-width="1.3612669416666667" stroke-dasharray="12.565541,5.445067766666667"/><path fill="none" stroke="black" paint-order="fill stroke markers" d=" M 553.8007305803385 128.884754037 L 553.8007305803385 999.5510899269998" stroke-miterlimit="10" stroke-width="1.3612669416666667" stroke-dasharray="12.565541,5.445067766666667"/></g><g><g><path fill="white" stroke="black" paint-order="fill stroke markers" d=" M 82.819480731 59.786844078 A 9.311065881 9.311065881 0 1 1 82.81947607546743 59.77753301367084 M 73.50841485 69.097909959 L 73.50841485 89.026857985 M 61.747068473999995 76.285399411 L 85.26976122599999 76.285399411 M 73.50841485 89.026857985 L 61.747068473999995 107.648989747 M 73.50841485 89.026857985 L 85.26976122599999 107.648989747" stroke-miterlimit="10" stroke-width="2.7769845610000004" stroke-dasharray=""/></g><g><g/><text fill="black" stroke="none" font-family="sans-serif" font-size="11pt" font-style="normal" font-weight="normal" text-decoration="normal" x="58.032401666406244" y="123.98419304699999" text-anchor="start" dominant-baseline="alphabetic" xml:space="preserve">User</text></g><path fill="none" stroke="none"/><g><path fill="white" stroke="black" paint-order="fill stroke markers" d=" M 279.85710896347786 84.779705127 L 379.6781420922513 84.779705127 L 379.6781420922513 128.884754037 L 279.85710896347786 128.884754037 L 279.85710896347786 84.779705127 Z" stroke-miterlimit="10" stroke-width="2.613632528" stroke-dasharray=""/></g><g><g/><text fill="black" stroke="none" font-family="sans-serif" font-size="11pt" font-style="normal" font-weight="normal" text-decoration="normal" x="297.5808045439779" y="112.549550737" text-anchor="start" dominant-baseline="alphabetic" xml:space="preserve">Front End</text></g><g><path fill="white" stroke="black" paint-order="fill stroke markers" d=" M 529.9513337623385 96.867755569 L 529.9513337623385 62.563828639 L 577.6501273983384 62.563828639 L 577.6501273983384 96.867755569" stroke-miterlimit="10" stroke-width="2.7769845610000004" stroke-dasharray=""/><path fill="white" stroke="black" paint-order="fill stroke markers" d=" M 577.6501273983384 61.3713587981 L 577.6489349384348 61.47916934301662 L 577.6453576779687 61.58696910696859 L 577.6393959746634 61.69474731006935 L 577.6310504246841 61.8024931745884 L 577.6203218625789 61.91019592602908 L 577.607211361195 62.017844794206 L 577.5917202315718 62.125429014322044 L 577.5738500228092 62.232937828044854 L 577.5536025219131 62.34036048458265 L 577.530979753617 62.44768624175929 L 577.5059839801786 62.55490436708851 L 577.4786177011546 62.66200413884712 L 577.44888365315 62.76897484714718 L 577.4167848095449 62.87580579500701 L 577.3823243801968 62.982486299420856 L 577.34550581112 63.08900569242717 L 577.3063327841406 63.19535332217542 L 577.2648092165289 63.30151855399125 L 577.2209392606069 63.40749077143996 L 577.1747273033335 63.5132593773881 L 577.1261779658662 63.618813795063225 L 577.0752961030981 63.724143469111524 L 577.0220868031732 63.82923786665337 L 576.966555386977 63.93408647833659 L 576.908707407605 64.03867881938739 L 576.8485486498068 64.1430044306588 L 576.7860851294082 64.24705287967667 L 576.721323092709 64.35081376168277 L 576.654269015859 64.45427670067541 L 576.5849296042101 64.55743135044686 L 576.5133117916454 64.66026739561813 L 576.4394227398867 64.7627745526704 L 576.3632698377777 64.86494257097338 L 576.2848607005449 64.96676123381039 L 576.2042031690368 65.06822035939997 L 576.1213053089393 65.16930980191414 L 576.0361754099695 65.27001945249287 L 575.948821985046 65.37033924025505 L 575.8592537694389 65.47025913330548 L 575.7674797198948 65.56976913973813 L 575.6735090137424 65.66885930863528 L 575.5773510479738 65.7675197310626 L 575.4790154383057 65.86574054106009 L 575.378512018217 65.96351191662859 L 575.2758508379658 66.06082408071202 L 575.1710421635847 66.15766730217506 L 575.0640964758538 66.25403189677627 L 574.9550244692529 66.3499082281365 L 574.8438370508916 66.4452867087025 L 574.730545339419 66.54015780070569 L 574.6151606639121 66.63451201711595 L 574.497694562742 66.72833992259025 L 574.3781587824211 66.82163213441623 L 574.2565652764279 66.91437932345046 L 574.1329262040115 67.00657221505134 L 574.0072539289761 67.0982015900065 L 573.8795610184446 67.18925828545483 L 573.7498602416016 67.27973319580266 L 573.6181645684167 67.36961727363435 L 573.4844871683474 67.45890153061701 L 573.3488414090225 67.54757703839935 L 573.2112408549046 67.6356349295045 L 573.0716992659347 67.72306639821673 L 572.9302305961554 67.80986270146201 L 572.7868489923156 67.89601515968236 L 572.6415687924565 67.98151515770375 L 572.4944045244766 68.06635414559763 L 572.3453709046805 68.15052363953589 L 572.1944828363056 68.2340152226393 L 572.0417554080333 68.31682054581911 L 571.887203892479 68.39893132861202 L 571.7308437446655 68.48033936000816 L 571.5726906004772 68.56103649927225 L 571.412760275097 68.6410146767576 L 571.2510687614238 68.72026589471311 L 571.0876322284745 68.79878222808303 L 570.9224670197659 68.87655582529945 L 570.7555896516816 68.95357890906746 L 570.5870168118191 69.02984377714286 L 570.416765357322 69.10534280310242 L 570.2448523131939 69.18006843710643 L 570.0712948705958 69.25401320665378 L 569.8961103851275 69.32716971732913 L 569.7193163750915 69.39953065354239 L 569.5409305197414 69.47108877926021 L 569.3609706575141 69.54183693872967 L 569.1794547842461 69.61176805719379 L 568.9964010513731 69.68087514159897 L 568.8118277641162 69.74915128129439 L 568.62575337965 69.81658964872294 L 568.438196505258 69.88318350010411 L 568.2491758964713 69.94892617610824 L 568.0587104551935 70.01381110252252 L 567.8668192278096 70.07783179090838 L 567.6735214032828 70.14098183925032 L 567.4788363112343 70.20325493259614 L 567.2827834200111 70.26464484368842 L 567.0853823347389 70.32514543358717 L 566.8866527953619 70.38475065228383 L 566.6866146746681 70.44345453930622 L 566.4852879763032 70.50125122431453 L 566.2826928327692 70.55813492768844 L 566.0788495034113 70.61409996110503 L 565.8737783723931 70.66914072810756 L 565.6674999466563 70.72325172466522 L 565.460034853872 70.77642753972344 L 565.2514038403763 70.82866285574504 L 565.0416277690969 70.87995244924193 L 564.8307276174659 70.9302911912975 L 564.6187244753228 70.9796740480795 L 564.4056395428051 71.0280960813434 L 564.1914941282288 71.07555244892625 L 563.9763096459565 71.12203840523081 L 563.7601076142572 71.16754930170019 L 563.5429096531541 71.21208058728268 L 563.3247374822621 71.25562780888683 L 563.1056129186165 71.29818661182675 L 562.8855578744912 71.33975274025764 L 562.6645943552071 71.38032203760127 L 562.4427444569321 71.41989044696174 L 562.2200303644711 71.45845401153106 L 561.9964743490476 71.49600887498494 L 561.7720987660772 71.5325512818683 L 561.5469260529309 71.56807757797091 L 561.3209787266925 71.60258421069277 L 561.0942793819063 71.63606772939937 L 560.8668506883179 71.66852478576672 L 560.638715388607 71.69995213411627 L 560.4098962961137 71.73034663173934 L 560.1804162925564 71.7597052392115 L 559.9502983257444 71.78802502069648 L 559.7195654072823 71.81530314423973 L 559.4882406102699 71.84153688205163 L 559.2563470669941 71.86672361078024 L 559.023907966616 71.8908608117737 L 558.7909465528519 71.913946071332 L 558.5574861216489 71.93597708094846 L 558.3235500188559 71.95695163754044 L 558.089161637888 71.97686764366978 L 557.854344417388 71.99572310775245 L 557.6191218388824 72.01351614425778 L 557.3835174244327 72.03024497389691 L 557.1475547342844 72.04590792380084 L 556.9112573645098 72.06050342768764 L 556.6746489446488 72.07403002601906 L 556.4377531353462 72.08648636614654 L 556.2005936259857 72.09787120244648 L 555.9631941323205 72.1081833964447 L 555.7255783941021 72.11742191693043 L 555.4877701727064 72.12558584005929 L 555.2497932487573 72.13267434944576 L 555.011671419749 72.13868673624485 L 554.7734284976658 72.14362239922286 L 554.5350883066014 72.14748084481762 L 554.2966746803764 72.1502616871878 L 554.0582114601547 72.15196464825142 L 553.8197224920596 72.15258955771385 L 553.581231624789 72.15213635308466 L 553.3427627072311 72.15060507968391 L 553.1043395860789 72.14799589063767 L 552.865986103446 72.1443090468627 L 552.6277260944815 72.13954491704027 L 552.3895833849883 72.1337039775794 L 552.1515817890387 72.12678681256918 L 551.9137451065939 72.11879411372033 L 551.6760971211239 72.10972668029609 L 551.4386615972294 72.09958541903224 L 551.2014622782647 72.08837134404646 L 550.9645228839643 72.07608557673689 L 550.72786710807 72.06272934567005 L 550.4915186159621 72.04830398645788 L 550.2555010422931 72.0328109416243 L 550.0198379886235 72.01625176046089 L 549.7845530210624 71.99862809887196 L 549.5496696679104 71.97994171920898 L 549.3152114173071 71.96019449009434 L 549.0812017148822 71.9393883862345 L 548.8476639614108 71.91752548822251 L 548.614621510474 71.89460798232996 L 548.3820976661223 71.87063816028832 L 548.1501156805464 71.84561841905983 L 547.9186987517518 71.81955126059778 L 547.6878700212383 71.79243929159627 L 547.4576525716867 71.7642852232296 L 547.2280694246501 71.73509187088118 L 546.9991435382518 71.7048621538619 L 546.7708978048898 71.67359909511825 L 546.5433550489472 71.64130582093009 L 546.3165380245099 71.6079855605979 L 546.0904694130915 71.57364164611994 L 545.8651718213645 71.53827751185906 L 545.6406677789004 71.50189669419922 L 545.4169797359165 71.46450283119185 L 545.1941300610306 71.42609966219209 L 544.9721410390245 71.38669102748484 L 544.7510348686154 71.34628086790075 L 544.530833660236 71.30487322442208 L 544.3115594338238 71.26247223777868 L 544.0932341166186 71.21908214803388 L 543.8758795409702 71.17470729416048 L 543.6595174421552 71.12935211360693 L 543.4441694562029 71.08302114185344 L 543.2298571177326 71.0357190119586 L 543.0166018577995 70.987450454096 L 542.8044250017521 70.93822029508118 L 542.5933477670987 70.88803345788901 L 542.3833912613874 70.8368949611614 L 542.1745764800935 70.7848099187054 L 541.9669243045212 70.73178353898187 L 541.760455499715 70.67782112458457 L 541.5551907123834 70.62292807170999 L 541.3511504688339 70.56710986961765 L 541.1483551729209 70.51037210008127 L 540.9468251040051 70.4527204368305 L 540.7465804149255 70.39416064498364 L 540.5476411299838 70.33469858047107 L 540.3500271429431 70.27434018944969 L 540.1537582150372 70.2130915077083 L 539.9588539729954 70.15095866006402 L 539.7653339070795 70.08794785974987 L 539.5732173691347 70.02406540779336 L 539.3825235706549 69.95931769238642 L 539.1932715808609 69.89371118824668 L 539.005480324794 69.82725245596986 L 538.8191685814234 69.7599481413738 L 538.634354981768 69.69180497483389 L 538.4510580070339 69.62282977060998 L 538.2692959867657 69.55302942616503 L 538.0890870970142 69.4824109214753 L 537.9104493585179 69.41098131833243 L 537.733400634902 69.3387477596372 L 537.5579586308911 69.26571746868528 L 537.3841408905397 69.19189774844492 L 537.2119647954768 69.1172959808266 L 537.0414475631684 69.04191962594494 L 536.8726062451958 68.96577622137262 L 536.7054577255499 68.88887338138663 L 536.5400187189435 68.81121879620689 L 536.3763057691393 68.73282023122718 L 536.214335247296 68.6536855262387 L 536.0541233503308 68.573822594646 L 535.8956860992996 68.49323942267567 L 535.7390393377958 68.41194406857777 L 535.584198730365 68.32994466181995 L 535.4311797609387 68.24724940227456 L 535.2799977312864 68.16386655939866 L 535.130667759485 68.07980447140702 L 534.9832047784075 67.99507154443839 L 534.837623534229 67.90967625171488 L 534.6939385849525 67.8236271326946 L 534.5521642989534 67.73693279221771 L 534.412314853542 67.64960189964606 L 534.2744042335462 67.56164318799608 L 534.1384462299131 67.47306545306569 L 534.0044544383301 67.38387755255452 L 533.8724422578643 67.29408840517834 L 533.742422889624 67.20370698977703 L 533.6144093354375 67.11274234441683 L 533.4884143965536 67.02120356548647 L 533.3644506723613 66.92909980678756 L 533.2425305591296 66.83644027861922 L 533.1226662487682 66.74323424685704 L 533.0048697276083 66.64949103202653 L 532.8891527752038 66.55522000837107 L 532.7755269631535 66.46043060291444 L 532.6640036539442 66.3651322945182 L 532.5545939998135 66.2693346129338 L 532.4473089416358 66.17304713784955 L 532.3421592078275 66.07627949793272 L 532.2391553132745 65.97904136986665 L 532.1383075582802 65.88134247738313 L 532.0396260275361 65.78319259028999 L 531.9431205891132 65.68460152349414 L 531.8488008934747 65.58557913602012 L 531.7566763725117 65.48613533002413 L 531.6667562385995 65.38628004980393 L 531.5790494836766 65.2860232808043 L 531.4935648783453 65.18537504861862 L 531.410310970995 65.08434541798623 L 531.329296086947 64.982944491786 L 531.2505283276222 64.88118241002603 L 531.174015569731 64.77906934882972 L 531.0997654644851 64.67661551941809 L 531.0277854368336 64.5738311670887 L 530.9580826847189 64.47072657019112 L 530.8906641783584 64.36731203909913 L 530.8255366595464 64.26359791517966 L 530.7627066409805 64.15959456975868 L 530.7021804056103 64.05531240308405 L 530.6439640060088 63.95076184328555 L 530.5880632637676 63.84595334533201 L 530.5344837689141 63.74089738998592 L 530.4832308793533 63.63560448275524 L 530.4343097203315 63.530085152842965 L 530.3877251839236 63.42434995209415 L 530.3434819285447 63.318409453940745 L 530.3015843784833 63.2122742523443 L 530.2620367234596 63.105954960736526 L 530.2248429182059 62.99946221095797 L 530.1900066820721 62.892806652194885 L 530.1575314986524 62.78599894991426 L 530.1274206154384 62.679049784797314 L 530.0996770434931 62.57196985167143 L 530.0743035571508 62.464769858440704 L 530.0513026937388 62.357460525015114 L 530.0306767533243 62.25005258223858 L 530.0124277984842 62.14255677081588 L 529.9965576540988 62.03498384023857 L 529.9830679071692 61.92734454771006 L 529.971959906659 61.81964965706991 L 529.963234763359 61.71190993771744 L 529.956893349776 61.6041361635348 L 529.9529363000464 61.49633911180959 L 529.9513640098717 61.38852956215717 L 529.9521766364796 61.28071829544265 L 529.9553740986082 61.172916092702856 L 529.9609560765139 61.06513373406823 L 529.9689220120035 60.957381997684834 L 529.9792711084903 60.84967165863649 L 529.9920023310731 60.74201348786736 L 530.0071144066402 60.6344182511048 L 530.0246058239968 60.526896707782825 L 530.0444748340155 60.41945960996616 L 530.0667194498122 60.31211770127506 L 530.0913374469437 60.204881715810956 L 530.1183263636307 60.097762377083015 L 530.147683501004 59.99077039693585 L 530.1794059233746 59.88391647447831 L 530.2134904585265 59.7772112950136 L 530.2499336980345 59.67066552897075 L 530.2887319976053 59.56428983083758 L 530.329881477441 59.45809483809524 L 530.373378022628 59.35209117015452 L 530.419217283548 59.24628942729389 L 530.4673946763132 59.14070018959944 L 530.5179053832245 59.03533401590697 L 530.5707443532531 58.93020144274604 L 530.6259063025462 58.82531298328635 L 530.6833857149549 58.72067912628645 L 530.7431768425856 58.61631033504484 L 530.8052737063755 58.51221704635366 L 530.86967009669 58.40840966945505 L 530.9363595739438 58.30489858500019 L 531.0053354692446 58.20169414401126 L 531.0765908850605 58.098806666846365 L 531.1501186959091 57.996246442167475 L 531.2259115490707 57.894023725911595 L 531.3039618653231 57.79214874026516 L 531.3842618396999 57.69063167264185 L 531.4668034422702 57.58948267466382 L 531.551578418943 57.488711861146584 L 531.638578292291 57.38832930908751 L 531.7277943623993 57.28834505665816 L 531.8192177077354 57.18876910220045 L 531.912839186041 57.08961140322686 L 532.008649435246 56.99088187542464 L 532.1066388744056 56.8925903916643 L 532.2067977046574 56.794746781012314 L 532.309115910202 56.6973608277482 L 532.4135832593038 56.60044227038614 L 532.5201893053153 56.5040008007011 L 532.6289233877205 56.40804606275968 L 532.7397746332018 56.31258765195572 L 532.8527319567272 56.217635114050736 L 532.9677840626583 56.12319794421941 L 533.0849194458805 56.029285586100016 L 533.2041263929528 55.93590743085011 L 533.3253929832803 55.8430728162074 L 533.4487070903047 55.75079102555599 L 533.5740563827181 55.65907128699804 L 533.7014283256958 55.56792277243099 L 533.8308101821497 55.47735459663031 L 533.9621890140018 55.387375816338135 L 534.0955516834783 55.29799542935749 L 534.2308848544237 55.20922237365261 L 534.3681749936336 55.12106552645507 L 534.5074083722084 55.033533703376136 L 534.6485710669263 54.94663565752517 L 534.7916489616354 54.86038007863435 L 534.9366277486655 54.77477559218967 L 535.0834929302588 54.689830758568455 L 535.2322298200195 54.60555407218327 L 535.3828235443824 54.52195396063252 L 535.5352590441008 54.439038783857704 L 535.6895210757516 54.35681683330739 L 535.8455942132603 54.27529633110813 L 536.003462849443 54.19448542924221 L 536.163111197568 54.114392208732454 L 536.3245232929331 54.03502467883419 L 536.4876829944636 53.95639077623426 L 536.6525739863251 53.878498364257396 L 536.8191797795561 53.801355232079885 L 536.9874837137158 53.72496909395066 L 537.1574689585511 53.649347588419886 L 537.3291185156794 53.57449827757509 L 537.5024152202878 53.50042864628498 L 537.6773417428503 53.42714610145097 L 537.8538805908605 53.35465797126647 L 538.0320141105806 53.28297150448409 L 538.2117244888071 53.21209386969077 L 538.392993754652 53.14203215459092 L 538.5758037813397 53.072793365297684 L 538.7601362880199 53.00438442563227 L 538.9459728415957 52.93681217643165 L 539.1332948585663 52.870083374864436 L 539.3220836068862 52.80420469375517 L 539.512320207838 52.739182720917064 L 539.7039856379201 52.67502395849323 L 539.8970607307492 52.611734822306424 L 540.0915261789769 52.54932164121754 L 540.2873625362205 52.48779065649267 L 540.4845502190072 52.427148021179015 L 540.6830695087335 52.36739979948956 L 540.8829005536355 52.3085519661967 L 541.0840233707753 52.25061040603471 L 541.2864178480389 52.19358091311133 L 541.4900637461473 52.13746919032833 L 541.69494070068 52.08228084881122 L 541.9010282241127 52.02802140734818 L 542.1083057078646 51.974696291838114 L 542.3167524243601 51.922310834748146 L 542.5263475291013 51.87087027458034 L 542.7370700627522 51.82037975534783 L 542.9488989532352 51.770844326060484 L 543.1618130178379 51.72226894021993 L 543.375790965331 51.674658455324284 L 543.5908113980983 51.62801763238236 L 543.8068528142754 51.58235113543759 L 544.0238936099009 51.5376635311016 L 544.2419120810763 51.49395928809759 L 544.4608864261359 51.451242776813444 L 544.6807947478276 51.409518268864694 L 544.9016150555028 51.368789936667355 L 545.1233252673145 51.32906185302072 L 545.3459032124264 51.29033799070003 L 545.5693266332294 51.252622222059266 L 545.7935731875675 51.21591831864385 L 546.0186204509724 51.18022995081354 L 546.2444459189052 51.14556068737539 L 546.4710270090072 51.11191399522683 L 546.6983410633584 51.079293239009054 L 546.9263653507425 51.047701680770494 L 547.155077068921 51.01714247964064 L 547.3844533469126 50.98761869151416 L 547.6144712472807 50.95913326874524 L 547.8451077684268 50.93168905985244 L 548.0763398468912 50.90528880923376 L 548.3081443596585 50.87993515689227 L 548.5404981264709 50.85563063817208 L 548.7733779121451 50.83237768350481 L 549.0067604288967 50.81017861816654 L 549.2406223386685 50.78903566204531 L 549.4749402554643 50.768950929419105 L 549.7096907476878 50.749926428744466 L 549.9448503404853 50.7319640624556 L 550.1803955180937 50.71506562677416 L 550.4163027261914 50.69923281152964 L 550.6525483742541 50.684467199990365 L 550.8891088379139 50.6707702687052 L 551.1259604613217 50.658143387355835 L 551.3630795595124 50.64658781861989 L 551.6004424207738 50.63610471804463 L 551.8380253090176 50.62669513393135 L 552.0758044661528 50.61836000723063 L 552.3137561144622 50.61110017144819 L 552.5518564589789 50.604916352561574 L 552.7900816898671 50.5998091689475 L 553.0284079848021 50.595779131320086 L 553.2668115113531 50.592826642679725 L 553.505268429366 50.59095199827282 L 553.7437548933478 50.59015538556226 L 553.9822470548509 50.59043688420866 L 554.2207210648577 50.59179646606236 L 554.4591530761661 50.594233995166334 L 554.6975192457736 50.59774922776969 L 554.9357957372619 50.6023418123521 L 555.1739587231804 50.60801128965893 L 555.4119843874289 50.61475709274719 L 555.6498489276394 50.622578547042174 L 555.887528557556 50.63147487040497 L 556.1249995094141 50.64144517321068 L 556.3622380363161 50.6524884584373 L 556.599220414607 50.66460362176552 L 556.8359229462466 50.67778945168912 L 557.0723219611789 50.69204462963607 L 557.3083938196995 50.70736773010048 L 557.5441149148191 50.72375722078505 L 557.7794616746248 50.74121146275439 L 558.0144105646367 50.759728710598836 L 558.2489380901615 50.77930711260903 L 558.4830207986422 50.79994471096109 L 558.7166352820029 50.821639441912396 L 558.94975817899 50.844389136007905 L 559.1823661775081 50.86819151829718 L 559.4144360169512 50.893044208561825 L 559.6459444905287 50.91894472155353 L 559.8768684475862 50.94589046724256 L 560.1071847959204 50.973878751076825 L 560.3368705040883 51.00290677425126 L 560.5659026037107 51.03297163398772 L 560.7942581917683 51.064070323825305 L 561.0219144328928 51.09619973392093 L 561.2488485616495 51.129356651360375 L 561.4750378848149 51.16353776047952 L 561.7004597836452 51.198739643195935 L 561.9250917161381 51.23495877935069 L 562.1489112192878 51.27219154706035 L 562.3718959113304 51.31043422307917 L 562.5940234939824 51.349682983171405 L 562.8152717546709 51.38993390249377 L 563.035618568754 51.43118295598788 L 563.2550419017339 51.47342601878273 L 563.4735198114603 51.51665886660727 L 563.6910304503242 51.56087717621274 L 563.907552067443 51.60607652580503 L 564.1230630108354 51.65225239548683 L 564.3375417295866 51.69940016770967 L 564.5509667760036 51.74751512773561 L 564.7633168077596 51.79659246410874 L 564.9745705900283 51.84662726913632 L 565.1847069976075 51.89761453937955 L 565.3937050170315 51.949549176153894 L 565.6015437486727 52.00242598603895 L 565.808202408831 52.0562396813978 L 566.0136603318127 52.11098488090573 L 566.2178969719967 52.16665611008844 L 566.420891905889 52.22324780186939 L 566.6226248341655 52.28075429712656 L 566.8230755837017 52.339169845258354 L 567.0222241095893 52.398488604758626 L 567.2200504971419 52.458704643800864 L 567.4165349638855 52.51981194083135 L 567.6116578615373 52.581804385171296 L 567.8053996779701 52.64467577762793 L 567.9977410391634 52.708419831114405 L 568.1886627111419 52.77303017127848 L 568.378145601897 52.83850033713999 L 568.5661707632979 52.90482378173691 L 568.752719392985 52.97199387278003 L 568.9377728362507 53.040003893316246 L 569.121312587905 53.108847042400164 L 569.3033202941257 53.17851643577425 L 569.4837777542938 53.24900510655722 L 569.6626669228136 53.32030600594074 L 569.8399699109174 53.39241200389429 L 570.0156689884542 53.465315889878156 L 570.1897465856625 53.5390103735645 L 570.3621852949278 53.61348808556637 L 570.5329678725228 53.68874157817461 L 570.7020772403321 53.76476332610268 L 570.8694964875597 53.84154572723915 L 571.0352088724205 53.91908110340788 L 571.1991978238142 53.99736170113587 L 571.3614469429822 54.07637969242858 L 571.5219400051478 54.156127175552726 L 571.6806609611386 54.236596175826456 L 571.8375939389912 54.3177786464168 L 571.9927232455385 54.39966646914434 L 572.1460333679794 54.48225145529506 L 572.2975089754291 54.56552534643915 L 572.4471349204532 54.6494798152569 L 572.594896240582 54.73410646637139 L 572.7407781598065 54.81939683718802 L 572.8847660900564 54.9053423987408 L 573.0268456326586 54.99193455654518 L 573.1670025797773 55.079164651457546 L 573.3052229158345 55.16702396054111 L 573.4414928189119 55.25550369793815 L 573.5757986621327 55.344595015748695 L 573.7081270150245 55.43428900491518 L 573.8384646448621 55.52457669611344 L 573.9667985179915 55.615449060649595 L 574.0931158011322 55.706897011362926 L 574.2174038626608 55.79891140353456 L 574.3396502738752 55.891483035801954 L 574.459842810236 55.98460265107904 L 574.5779694525896 56.07826093748187 L 574.6940183883703 56.17244852925987 L 574.8079780127812 56.26715600773234 L 574.9198369299548 56.36237390223035 L 575.0295839540927 56.45809269104382 L 575.1372081105839 56.55430280237361 L 575.2426986371023 56.65099461528878 L 575.3460449846833 56.74815846068861 L 575.4472368187783 56.84578462226952 L 575.5462640202882 56.943863337496715 L 575.6431166865751 57.0423847985804 L 575.7377851324535 57.14133915345658 L 575.8302598911574 57.240716506772216 L 575.9205317152882 57.34050692087479 L 576.0085915777386 57.44070041680606 L 576.0944306725956 57.54128697529992 L 576.1780404160216 57.64225653778434 L 576.2594124471116 57.74359900738722 L 576.3385386287305 57.84530424994605 L 576.415411048326 57.94736209502132 L 576.4900220187201 58.04976233691358 L 576.5623640788781 58.15249473568397 L 576.6324299946543 58.25554901817823 L 576.7002127595154 58.35891487905398 L 576.7657055952413 58.46258198181127 L 576.8289019526032 58.566539959826216 L 576.8897955120179 58.67077841738765 L 576.9483801841803 58.77528693073668 L 577.004650110672 58.88005504910905 L 577.0585996645472 58.985072295780256 L 577.1102234508954 59.09032816911312 L 577.1595163073811 59.19581214360803 L 577.2064733047597 59.301513670955444 L 577.2510897473705 59.4074221810907 L 577.2933611736066 59.513527083251056 L 577.3332833563604 59.619817767034704 L 577.3708523034471 59.72628360346185 L 577.4060642580031 59.832913946037564 L 577.4389156988625 59.939698131816456 L 577.4694033409083 60.046625482468926 L 577.497524135402 60.153685305349015 L 577.5232752702874 60.26086689456366 L 577.5466541704726 60.36815953204325 L 577.5676584980869 60.47555248861345 L 577.5862861527152 60.5830350250681 L 577.6025352716074 60.69059639324311 L 577.6164042298653 60.79822583709131 L 577.6278916406046 60.905912593758 L 577.6369963550937 61.01364589465726 L 577.643717462869 61.12141496654876 L 577.6480542918249 61.22920903261514 L 577.6500064082825 61.337017313539604 M 577.6501273983384 95.6752857281 L 577.6489349384348 95.78309627301661 L 577.6453576779687 95.89089603696858 L 577.6393959746634 95.99867424006935 L 577.6310504246841 96.1064201045884 L 577.6203218625789 96.21412285602908 L 577.607211361195 96.321771724206 L 577.5917202315718 96.42935594432204 L 577.5738500228092 96.53686475804484 L 577.5536025219131 96.64428741458265 L 577.530979753617 96.75161317175929 L 577.5059839801786 96.85883129708851 L 577.4786177011546 96.96593106884711 L 577.44888365315 97.07290177714718 L 577.4167848095449 97.17973272500701 L 577.3823243801968 97.28641322942086 L 577.34550581112 97.39293262242717 L 577.3063327841406 97.49928025217542 L 577.2648092165289 97.60544548399125 L 577.2209392606069 97.71141770143996 L 577.1747273033335 97.8171863073881 L 577.1261779658662 97.92274072506322 L 577.0752961030981 98.02807039911151 L 577.0220868031732 98.13316479665336 L 576.966555386977 98.23801340833658 L 576.908707407605 98.34260574938737 L 576.8485486498068 98.4469313606588 L 576.7860851294082 98.55097980967666 L 576.721323092709 98.65474069168278 L 576.654269015859 98.7582036306754 L 576.5849296042101 98.86135828044685 L 576.5133117916454 98.96419432561812 L 576.4394227398867 99.0667014826704 L 576.3632698377777 99.16886950097337 L 576.2848607005449 99.27068816381038 L 576.2042031690368 99.37214728939998 L 576.1213053089393 99.47323673191414 L 576.0361754099695 99.57394638249288 L 575.948821985046 99.67426617025505 L 575.8592537694389 99.77418606330548 L 575.7674797198948 99.87369606973812 L 575.6735090137424 99.97278623863527 L 575.5773510479738 100.0714466610626 L 575.4790154383057 100.1696674710601 L 575.378512018217 100.2674388466286 L 575.2758508379658 100.36475101071201 L 575.1710421635847 100.46159423217506 L 575.0640964758538 100.55795882677627 L 574.9550244692529 100.65383515813649 L 574.8438370508916 100.74921363870249 L 574.730545339419 100.84408473070569 L 574.6151606639121 100.93843894711594 L 574.497694562742 101.03226685259024 L 574.3781587824211 101.12555906441622 L 574.2565652764279 101.21830625345046 L 574.1329262040115 101.31049914505132 L 574.0072539289761 101.4021285200065 L 573.8795610184446 101.49318521545483 L 573.7498602416016 101.58366012580265 L 573.6181645684167 101.67354420363434 L 573.4844871683474 101.762828460617 L 573.3488414090225 101.85150396839936 L 573.2112408549046 101.93956185950451 L 573.0716992659347 102.02699332821673 L 572.9302305961554 102.11378963146201 L 572.7868489923156 102.19994208968237 L 572.6415687924565 102.28544208770374 L 572.4944045244766 102.37028107559762 L 572.3453709046805 102.45445056953588 L 572.1944828363056 102.53794215263929 L 572.0417554080333 102.6207474758191 L 571.887203892479 102.70285825861201 L 571.7308437446655 102.78426629000816 L 571.5726906004772 102.86496342927225 L 571.412760275097 102.9449416067576 L 571.2510687614238 103.02419282471311 L 571.0876322284745 103.10270915808303 L 570.9224670197659 103.18048275529944 L 570.7555896516816 103.25750583906745 L 570.5870168118191 103.33377070714286 L 570.416765357322 103.4092697331024 L 570.2448523131939 103.48399536710642 L 570.0712948705958 103.55794013665377 L 569.8961103851275 103.63109664732913 L 569.7193163750915 103.70345758354237 L 569.5409305197414 103.7750157092602 L 569.3609706575141 103.84576386872968 L 569.1794547842461 103.91569498719377 L 568.9964010513731 103.98480207159896 L 568.8118277641162 104.05307821129438 L 568.62575337965 104.12051657872294 L 568.438196505258 104.1871104301041 L 568.2491758964713 104.25285310610823 L 568.0587104551935 104.31773803252251 L 567.8668192278096 104.38175872090837 L 567.6735214032828 104.44490876925032 L 567.4788363112343 104.50718186259614 L 567.2827834200111 104.5685717736884 L 567.0853823347389 104.62907236358716 L 566.8866527953619 104.68867758228383 L 566.6866146746681 104.7473814693062 L 566.4852879763032 104.80517815431453 L 566.2826928327692 104.86206185768845 L 566.0788495034113 104.91802689110501 L 565.8737783723931 104.97306765810755 L 565.6674999466563 105.02717865466522 L 565.460034853872 105.08035446972343 L 565.2514038403763 105.13258978574503 L 565.0416277690969 105.18387937924192 L 564.8307276174659 105.23421812129749 L 564.6187244753228 105.28360097807949 L 564.4056395428051 105.33202301134341 L 564.1914941282288 105.37947937892625 L 563.9763096459565 105.4259653352308 L 563.7601076142572 105.4714762317002 L 563.5429096531541 105.51600751728267 L 563.3247374822621 105.55955473888682 L 563.1056129186165 105.60211354182675 L 562.8855578744912 105.64367967025764 L 562.6645943552071 105.68424896760128 L 562.4427444569321 105.72381737696173 L 562.2200303644711 105.76238094153106 L 561.9964743490476 105.79993580498493 L 561.7720987660772 105.83647821186828 L 561.5469260529309 105.8720045079709 L 561.3209787266925 105.90651114069276 L 561.0942793819063 105.93999465939936 L 560.8668506883179 105.97245171576672 L 560.638715388607 106.00387906411626 L 560.4098962961137 106.03427356173933 L 560.1804162925564 106.0636321692115 L 559.9502983257444 106.09195195069648 L 559.7195654072823 106.11923007423972 L 559.4882406102699 106.14546381205162 L 559.2563470669941 106.17065054078024 L 559.023907966616 106.1947877417737 L 558.7909465528519 106.21787300133201 L 558.5574861216489 106.23990401094846 L 558.3235500188559 106.26087856754044 L 558.089161637888 106.28079457366978 L 557.854344417388 106.29965003775246 L 557.6191218388824 106.31744307425777 L 557.3835174244327 106.3341719038969 L 557.1475547342844 106.34983485380084 L 556.9112573645098 106.36443035768762 L 556.6746489446488 106.37795695601905 L 556.4377531353462 106.39041329614655 L 556.2005936259857 106.40179813244647 L 555.9631941323205 106.4121103264447 L 555.7255783941021 106.42134884693041 L 555.4877701727064 106.42951277005928 L 555.2497932487573 106.43660127944577 L 555.011671419749 106.44261366624485 L 554.7734284976658 106.44754932922287 L 554.5350883066014 106.45140777481762 L 554.2966746803764 106.45418861718778 L 554.0582114601547 106.45589157825142 L 553.8197224920596 106.45651648771386 L 553.581231624789 106.45606328308465 L 553.3427627072311 106.4545320096839 L 553.1043395860789 106.45192282063768 L 552.865986103446 106.44823597686269 L 552.6277260944815 106.44347184704026 L 552.3895833849883 106.43763090757939 L 552.1515817890387 106.43071374256917 L 551.9137451065939 106.42272104372033 L 551.6760971211239 106.41365361029608 L 551.4386615972294 106.40351234903224 L 551.2014622782647 106.39229827404645 L 550.9645228839643 106.38001250673689 L 550.72786710807 106.36665627567004 L 550.4915186159621 106.35223091645787 L 550.2555010422931 106.33673787162431 L 550.0198379886235 106.32017869046089 L 549.7845530210624 106.30255502887195 L 549.5496696679104 106.28386864920897 L 549.3152114173071 106.26412142009434 L 549.0812017148822 106.2433153162345 L 548.8476639614108 106.22145241822251 L 548.614621510474 106.19853491232995 L 548.3820976661223 106.17456509028831 L 548.1501156805464 106.14954534905984 L 547.9186987517518 106.12347819059778 L 547.6878700212383 106.09636622159626 L 547.4576525716867 106.06821215322961 L 547.2280694246501 106.03901880088118 L 546.9991435382518 106.0087890838619 L 546.7708978048898 105.97752602511825 L 546.5433550489472 105.94523275093007 L 546.3165380245099 105.91191249059789 L 546.0904694130915 105.87756857611994 L 545.8651718213645 105.84220444185907 L 545.6406677789004 105.8058236241992 L 545.4169797359165 105.76842976119184 L 545.1941300610306 105.73002659219209 L 544.9721410390245 105.69061795748485 L 544.7510348686154 105.65020779790075 L 544.530833660236 105.60880015442207 L 544.3115594338238 105.56639916777867 L 544.0932341166186 105.52300907803387 L 543.8758795409702 105.47863422416049 L 543.6595174421552 105.43327904360692 L 543.4441694562029 105.38694807185344 L 543.2298571177326 105.33964594195861 L 543.0166018577995 105.291377384096 L 542.8044250017521 105.24214722508117 L 542.5933477670987 105.19196038788901 L 542.3833912613874 105.1408218911614 L 542.1745764800935 105.08873684870541 L 541.9669243045212 105.03571046898188 L 541.760455499715 104.98174805458457 L 541.5551907123834 104.92685500170998 L 541.3511504688339 104.87103679961766 L 541.1483551729209 104.81429903008126 L 540.9468251040051 104.75664736683049 L 540.7465804149255 104.69808757498365 L 540.5476411299838 104.63862551047107 L 540.3500271429431 104.57826711944969 L 540.1537582150372 104.51701843770829 L 539.9588539729954 104.45488559006402 L 539.7653339070795 104.39187478974986 L 539.5732173691347 104.32799233779335 L 539.3825235706549 104.26324462238642 L 539.1932715808609 104.19763811824667 L 539.005480324794 104.13117938596986 L 538.8191685814234 104.0638750713738 L 538.634354981768 103.99573190483389 L 538.4510580070339 103.92675670060999 L 538.2692959867657 103.85695635616503 L 538.0890870970142 103.7863378514753 L 537.9104493585179 103.71490824833242 L 537.733400634902 103.64267468963719 L 537.5579586308911 103.56964439868527 L 537.3841408905397 103.4958246784449 L 537.2119647954768 103.4212229108266 L 537.0414475631684 103.34584655594495 L 536.8726062451958 103.26970315137261 L 536.7054577255499 103.19280031138662 L 536.5400187189435 103.11514572620688 L 536.3763057691393 103.03674716122718 L 536.214335247296 102.9576124562387 L 536.0541233503308 102.87774952464599 L 535.8956860992996 102.79716635267567 L 535.7390393377958 102.71587099857777 L 535.584198730365 102.63387159181995 L 535.4311797609387 102.55117633227457 L 535.2799977312864 102.46779348939864 L 535.130667759485 102.383731401407 L 534.9832047784075 102.29899847443839 L 534.837623534229 102.21360318171489 L 534.6939385849525 102.12755406269459 L 534.5521642989534 102.04085972221772 L 534.412314853542 101.95352882964605 L 534.2744042335462 101.86557011799609 L 534.1384462299131 101.77699238306569 L 534.0044544383301 101.68780448255453 L 533.8724422578643 101.59801533517833 L 533.742422889624 101.50763391977702 L 533.6144093354375 101.41666927441683 L 533.4884143965536 101.32513049548646 L 533.3644506723613 101.23302673678755 L 533.2425305591296 101.14036720861921 L 533.1226662487682 101.04716117685703 L 533.0048697276083 100.95341796202653 L 532.8891527752038 100.85914693837105 L 532.7755269631535 100.76435753291443 L 532.6640036539442 100.66905922451821 L 532.5545939998135 100.5732615429338 L 532.4473089416358 100.47697406784954 L 532.3421592078275 100.3802064279327 L 532.2391553132745 100.28296829986664 L 532.1383075582802 100.18526940738312 L 532.0396260275361 100.08711952028997 L 531.9431205891132 99.98852845349413 L 531.8488008934747 99.8895060660201 L 531.7566763725117 99.79006226002413 L 531.6667562385995 99.69020697980392 L 531.5790494836766 99.5899502108043 L 531.4935648783453 99.48930197861863 L 531.410310970995 99.38827234798623 L 531.329296086947 99.28687142178599 L 531.2505283276222 99.18510934002603 L 531.174015569731 99.08299627882971 L 531.0997654644851 98.98054244941808 L 531.0277854368336 98.87775809708869 L 530.9580826847189 98.7746535001911 L 530.8906641783584 98.67123896909912 L 530.8255366595464 98.56752484517966 L 530.7627066409805 98.46352149975867 L 530.7021804056103 98.35923933308405 L 530.6439640060088 98.25468877328554 L 530.5880632637676 98.14988027533201 L 530.5344837689141 98.04482431998592 L 530.4832308793533 97.93953141275524 L 530.4343097203315 97.83401208284296 L 530.3877251839236 97.72827688209414 L 530.3434819285447 97.62233638394075 L 530.3015843784833 97.5162011823443 L 530.2620367234596 97.40988189073651 L 530.2248429182059 97.30338914095798 L 530.1900066820721 97.19673358219488 L 530.1575314986524 97.08992587991426 L 530.1274206154384 96.9829767147973 L 530.0996770434931 96.87589678167143 L 530.0743035571508 96.7686967884407 L 530.0513026937388 96.66138745501512 L 530.0306767533243 96.55397951223858 L 530.0124277984842 96.44648370081588 L 529.9965576540988 96.33891077023856 L 529.9830679071692 96.23127147771005 L 529.971959906659 96.1235765870699 L 529.963234763359 96.01583686771744 L 529.956893349776 95.90806309353479 L 529.9529363000464 95.80026604180959 L 529.9513640098717 95.69245649215716" stroke-miterlimit="10" stroke-width="2.7769845610000004" stroke-dasharray=""/></g><g><g/><text fill="black" stroke="none" font-family="sans-serif" font-size="11pt" font-style="normal" font-weight="normal" text-decoration="normal" x="522.4263714494791" y="123.98419304699999" text-anchor="start" dominant-baseline="alphabetic" xml:space="preserve">Back End</text></g></g><g><path fill="white" stroke="black" paint-order="fill stroke markers" d=" M 321.6000238778646 182.790924927 L 337.9352271778646 182.790924927 L 337.9352271778646 942.3778783769998 L 321.6000238778646 942.3778783769998 L 321.6000238778646 182.790924927" stroke-miterlimit="10" stroke-width="1.3612669416666667" stroke-dasharray=""/><path fill="white" stroke="black" paint-order="fill stroke markers" d=" M 545.6331289303384 320.006632647 L 561.9683322303385 320.006632647 L 561.9683322303385 409.850250797 L 545.6331289303384 409.850250797 L 545.6331289303384 320.006632647" stroke-miterlimit="10" stroke-width="1.3612669416666667" stroke-dasharray=""/><path fill="white" stroke="black" paint-order="fill stroke markers" d=" M 545.6331289303384 561.767641487 L 561.9683322303385 561.767641487 L 561.9683322303385 674.4805442569999 L 545.6331289303384 674.4805442569999 L 545.6331289303384 561.767641487" stroke-miterlimit="10" stroke-width="1.3612669416666667" stroke-dasharray=""/><path fill="white" stroke="black" paint-order="fill stroke markers" d=" M 545.6331289303384 826.3979349469998 L 561.9683322303385 826.3979349469998 L 561.9683322303385 872.1365041869998 L 545.6331289303384 872.1365041869998 L 545.6331289303384 826.3979349469998" stroke-miterlimit="10" stroke-width="1.3612669416666667" stroke-dasharray=""/><g><g><rect fill="white" stroke="none" x="181.3888433489128" y="161.555160637" width="32.330752030039065" height="21.23576429"/></g><text fill="black" stroke="none" font-family="sans-serif" font-size="11pt" font-style="normal" font-weight="normal" text-decoration="normal" x="183.83912384391277" y="176.25684360699998" text-anchor="start" dominant-baseline="alphabetic" xml:space="preserve">Visit</text></g><g><path fill="none" stroke="black" paint-order="fill stroke markers" d=" M 73.50841485 182.790924927 L 308.15070649419795 182.790924927" stroke-miterlimit="10" stroke-width="1.3612669416666667" stroke-dasharray=""/><g transform="translate(321.6000238778646,182.790924927) translate(-321.6000238778646,-182.790924927)"><path fill="black" stroke="none" paint-order="stroke fill markers" d=" M 307.9873544611979 175.98459021866665 L 321.6000238778646 182.790924927 L 307.9873544611979 189.59725963533333 Z"/></g></g><g><g><rect fill="white" stroke="none" x="131.94362240164716" y="207.293729877" width="131.22119392457031" height="21.23576429"/></g><text fill="black" stroke="none" font-family="sans-serif" font-size="11pt" font-style="normal" font-weight="normal" text-decoration="normal" x="134.39390289664715" y="221.99541284699998" text-anchor="start" dominant-baseline="alphabetic" xml:space="preserve">Display Login Page</text></g><g><path fill="none" stroke="black" paint-order="fill stroke markers" d=" M 321.6000238778646 228.529494167 L 86.95773223366666 228.529494167" stroke-miterlimit="10" stroke-width="1.3612669416666667" stroke-dasharray="6.53408132"/><g transform="translate(73.50841485,228.529494167) translate(-73.50841485,-228.529494167)"><path fill="black" stroke="none" paint-order="stroke fill markers" d=" M 87.12108426666666 221.72315945866666 L 73.50841485 228.529494167 L 87.12108426666666 235.33582887533333 Z"/></g></g><g><g><rect fill="white" stroke="none" x="117.29438381522137" y="253.032299117" width="160.51967109742188" height="21.23576429"/></g><text fill="black" stroke="none" font-family="sans-serif" font-size="11pt" font-style="normal" font-weight="normal" text-decoration="normal" x="119.74466431022137" y="267.733982087" text-anchor="start" dominant-baseline="alphabetic" xml:space="preserve">User Enters Credentials</text></g><g><path fill="none" stroke="black" paint-order="fill stroke markers" d=" M 73.50841485 274.268063407 L 308.15070649419795 274.268063407" stroke-miterlimit="10" stroke-width="1.3612669416666667" stroke-dasharray=""/><g transform="translate(321.6000238778646,274.268063407) translate(-321.6000238778646,-274.268063407)"><path fill="black" stroke="none" paint-order="stroke fill markers" d=" M 307.9873544611979 267.46172869866666 L 321.6000238778646 274.268063407 L 307.9873544611979 281.07439811533334 Z"/></g></g><g><g><rect fill="white" stroke="none" x="379.44487473195306" y="298.770868357" width="124.67860664429688" height="21.23576429"/></g><text fill="black" stroke="none" font-family="sans-serif" font-size="11pt" font-style="normal" font-weight="normal" text-decoration="normal" x="381.8951552269531" y="313.47255132699996" text-anchor="start" dominant-baseline="alphabetic" xml:space="preserve">Check Credentials</text></g><g><path fill="none" stroke="black" paint-order="fill stroke markers" d=" M 337.9352271778646 320.006632647 L 532.1838115466718 320.006632647" stroke-miterlimit="10" stroke-width="1.3612669416666667" stroke-dasharray=""/><g transform="translate(545.6331289303384,320.006632647) translate(-545.6331289303384,-320.006632647)"><path fill="black" stroke="none" paint-order="stroke fill markers" d=" M 532.0204595136718 313.20029793866667 L 545.6331289303384 320.006632647 L 532.0204595136718 326.81296735533334 Z"/></g></g><g><g><rect fill="white" stroke="none" x="364.77773758595697" y="388.614486507" width="154.01288093628906" height="21.23576429"/></g><text fill="black" stroke="none" font-family="sans-serif" font-size="11pt" font-style="normal" font-weight="normal" text-decoration="normal" x="367.228018080957" y="403.31616947699996" text-anchor="start" dominant-baseline="alphabetic" xml:space="preserve">Credentials is matched</text></g><g><path fill="none" stroke="black" paint-order="fill stroke markers" d=" M 545.6331289303384 409.850250797 L 351.38454456153124 409.850250797" stroke-miterlimit="10" stroke-width="1.3612669416666667" stroke-dasharray="6.53408132"/><g transform="translate(337.9352271778646,409.850250797) translate(-337.9352271778646,-409.850250797)"><path fill="black" stroke="none" paint-order="stroke fill markers" d=" M 351.54789659453127 403.04391608866666 L 337.9352271778646 409.850250797 L 351.54789659453127 416.65658550533334 Z"/></g></g><g><g><rect fill="white" stroke="none" x="169.01948147147138" y="434.353055747" width="57.06947578492188" height="21.23576429"/></g><text fill="black" stroke="none" font-family="sans-serif" font-size="11pt" font-style="normal" font-weight="normal" text-decoration="normal" x="171.46976196647137" y="449.05473871699996" text-anchor="start" dominant-baseline="alphabetic" xml:space="preserve">loged In</text></g><g><path fill="none" stroke="black" paint-order="fill stroke markers" d=" M 321.6000238778646 455.588820037 L 86.95773223366666 455.588820037" stroke-miterlimit="10" stroke-width="1.3612669416666667" stroke-dasharray="6.53408132"/><g transform="translate(73.50841485,455.588820037) translate(-73.50841485,-455.588820037)"><path fill="black" stroke="none" paint-order="stroke fill markers" d=" M 87.12108426666666 448.78248532866667 L 73.50841485 455.588820037 L 87.12108426666666 462.39515474533334 Z"/></g></g><path fill="white" stroke="black" paint-order="fill stroke markers" d=" M 500.85629642420565 524.196673897 L 592.0434817664712 524.196673897 L 606.7451647364712 538.898356867 L 606.7451647364712 561.767641487 L 500.85629642420565 561.767641487 L 500.85629642420565 524.196673897 M 592.0434817664712 524.196673897 L 592.0434817664712 538.898356867 L 606.7451647364712 538.898356867" stroke-miterlimit="10" stroke-width="1.3612669416666667" stroke-dasharray=""/><g><text fill="black" stroke="none" font-family="sans-serif" font-size="11pt" font-style="normal" font-weight="normal" text-decoration="normal" x="523.7255810442057" y="547.065958517" text-anchor="start" dominant-baseline="alphabetic" xml:space="preserve">Trials &lt; 3</text></g><g><g><rect fill="white" stroke="none" x="581.2983228020053" y="586.2704464369999" width="99.68934883179688" height="21.23576429"/></g><text fill="black" stroke="none" font-family="sans-serif" font-size="11pt" font-style="normal" font-weight="normal" text-decoration="normal" x="583.7486032970053" y="600.9721294069999" text-anchor="start" dominant-baseline="alphabetic" xml:space="preserve">Trials plus one</text></g><g><path fill="none" stroke="black" paint-order="fill stroke markers" d=" M 561.9683322303385 607.5062107269999 L 627.3091454303385 607.5062107269999 L 627.3091454303385 628.741975017 L 575.4176496140052 628.741975017" stroke-miterlimit="10" stroke-width="1.3612669416666667" stroke-dasharray=""/><g transform="translate(561.9683322303385,628.741975017) translate(-561.9683322303385,-628.741975017)"><path fill="black" stroke="none" paint-order="stroke fill markers" d=" M 575.5810016470052 621.9356403086666 L 561.9683322303385 628.741975017 L 575.5810016470052 635.5483097253333 Z"/></g></g><g><g><rect fill="white" stroke="none" x="357.2652177495312" y="653.2447799669999" width="169.03792060914063" height="21.23576429"/></g><text fill="black" stroke="none" font-family="sans-serif" font-size="11pt" font-style="normal" font-weight="normal" text-decoration="normal" x="359.7154982445312" y="667.9464629369999" text-anchor="start" dominant-baseline="alphabetic" xml:space="preserve">Credentials isn't matched</text></g><g><path fill="none" stroke="black" paint-order="fill stroke markers" d=" M 545.6331289303384 674.4805442569999 L 351.38454456153124 674.4805442569999" stroke-miterlimit="10" stroke-width="1.3612669416666667" stroke-dasharray="6.53408132"/><g transform="translate(337.9352271778646,674.4805442569999) translate(-337.9352271778646,-674.4805442569999)"><path fill="black" stroke="none" paint-order="stroke fill markers" d=" M 351.54789659453127 667.6742095486666 L 337.9352271778646 674.4805442569999 L 351.54789659453127 681.2868789653332 Z"/></g></g><g><g><rect fill="white" stroke="none" x="92.83840542166668" y="698.9833492069998" width="209.43162788453125" height="21.23576429"/></g><text fill="black" stroke="none" font-family="sans-serif" font-size="11pt" font-style="normal" font-weight="normal" text-decoration="normal" x="95.28868591666668" y="713.6850321769998" text-anchor="start" dominant-baseline="alphabetic" xml:space="preserve">Wrong! Check Your Credentials</text></g><g><path fill="none" stroke="black" paint-order="fill stroke markers" d=" M 321.6000238778646 720.2191134969999 L 86.95773223366666 720.2191134969999" stroke-miterlimit="10" stroke-width="1.3612669416666667" stroke-dasharray="6.53408132"/><g transform="translate(73.50841485,720.2191134969999) translate(-73.50841485,-720.2191134969999)"><path fill="black" stroke="none" paint-order="stroke fill markers" d=" M 87.12108426666666 713.4127787886665 L 73.50841485 720.2191134969999 L 87.12108426666666 727.0254482053332 Z"/></g></g><path fill="white" stroke="black" paint-order="fill stroke markers" d=" M 500.85629642420565 788.8269673569998 L 592.0434817664712 788.8269673569998 L 606.7451647364712 803.5286503269998 L 606.7451647364712 826.3979349469998 L 500.85629642420565 826.3979349469998 L 500.85629642420565 788.8269673569998 M 592.0434817664712 788.8269673569998 L 592.0434817664712 803.5286503269998 L 606.7451647364712 803.5286503269998" stroke-miterlimit="10" stroke-width="1.3612669416666667" stroke-dasharray=""/><g><text fill="black" stroke="none" font-family="sans-serif" font-size="11pt" font-style="normal" font-weight="normal" text-decoration="normal" x="523.7255810442057" y="811.6962519769999" text-anchor="start" dominant-baseline="alphabetic" xml:space="preserve">Trials = 3</text></g><g><g><rect fill="white" stroke="none" x="387.1757249516796" y="850.9007398969998" width="109.21690620484375" height="21.23576429"/></g><text fill="black" stroke="none" font-family="sans-serif" font-size="11pt" font-style="normal" font-weight="normal" text-decoration="normal" x="389.62600544667964" y="865.6024228669997" text-anchor="start" dominant-baseline="alphabetic" xml:space="preserve">Locked Account</text></g><g><path fill="none" stroke="black" paint-order="fill stroke markers" d=" M 545.6331289303384 872.1365041869998 L 351.38454456153124 872.1365041869998" stroke-miterlimit="10" stroke-width="1.3612669416666667" stroke-dasharray="6.53408132"/><g transform="translate(337.9352271778646,872.1365041869998) translate(-337.9352271778646,-872.1365041869998)"><path fill="black" stroke="none" paint-order="stroke fill markers" d=" M 351.54789659453127 865.3301694786664 L 337.9352271778646 872.1365041869998 L 351.54789659453127 878.9428388953331 Z"/></g></g><g><g><rect fill="white" stroke="none" x="118.76897030203777" y="896.6393091369997" width="157.57049812378906" height="21.23576429"/></g><text fill="black" stroke="none" font-family="sans-serif" font-size="11pt" font-style="normal" font-weight="normal" text-decoration="normal" x="121.21925079703777" y="911.3409921069997" text-anchor="start" dominant-baseline="alphabetic" xml:space="preserve">Your Account is Locked</text></g><g><path fill="none" stroke="black" paint-order="fill stroke markers" d=" M 321.6000238778646 917.8750734269997 L 86.95773223366666 917.8750734269997" stroke-miterlimit="10" stroke-width="1.3612669416666667" stroke-dasharray="6.53408132"/><g transform="translate(73.50841485,917.8750734269997) translate(-73.50841485,-917.8750734269997)"><path fill="black" stroke="none" paint-order="stroke fill markers" d=" M 87.12108426666666 911.0687387186664 L 73.50841485 917.8750734269997 L 87.12108426666666 924.6814081353331 Z"/></g></g><g><g/><path fill="none" stroke="black" paint-order="fill stroke markers" d=" M 16.335203299999996 344.509437597 L 686.7049927888021 344.509437597 L 686.7049927888021 942.3778783769998 L 16.335203299999996 942.3778783769998 L 16.335203299999996 344.509437597 Z" stroke-miterlimit="10" stroke-width="2.3336004714285714" stroke-dasharray=""/><path fill="white" stroke="black" paint-order="fill stroke markers" d=" M 16.335203299999996 344.509437597 L 16.335203299999996 364.111681557 L 62.69440689707031 364.111681557 L 72.49552887707031 354.310559577 L 72.49552887707031 344.509437597 L 16.335203299999996 344.509437597" stroke-miterlimit="10" stroke-width="2.3336004714285714" stroke-dasharray=""/><text fill="black" stroke="none" font-family="sans-serif" font-size="8.8pt" font-style="normal" font-weight="bold" text-decoration="normal" x="32.67040659999999" y="357.577600237" text-anchor="start" dominant-baseline="alphabetic" xml:space="preserve">alt</text><g><rect fill="white" stroke="none" x="86.38045168207032" y="345.816253861" width="116.34112800660156" height="16.988611432000003"/></g><text fill="black" stroke="none" font-family="sans-serif" font-size="8.8pt" font-style="normal" font-weight="bold" text-decoration="normal" x="88.83073217707032" y="357.577600237" text-anchor="start" dominant-baseline="alphabetic" xml:space="preserve">[ Right Credentials ]</text><g><path fill="none" stroke="black" paint-order="fill stroke markers" d=" M 16.335203299999996 480.091624987 L 686.7049927888021 480.091624987" stroke-miterlimit="10" stroke-width="2.3336004714285714" stroke-dasharray="4.083800825"/></g><g/><g><rect fill="white" stroke="none" x="86.38045168207032" y="481.398441251" width="188.82301582398438" height="16.988611432000003"/></g><text fill="black" stroke="none" font-family="sans-serif" font-size="8.8pt" font-style="normal" font-weight="bold" text-decoration="normal" x="88.83073217707032" y="493.159787627" text-anchor="start" dominant-baseline="alphabetic" xml:space="preserve">[ Wrong Credentials &amp; Trials &lt; 3 ]</text><g><path fill="none" stroke="black" paint-order="fill stroke markers" d=" M 16.335203299999996 744.7219184469999 L 686.7049927888021 744.7219184469999" stroke-miterlimit="10" stroke-width="2.3336004714285714" stroke-dasharray="4.083800825"/></g><g/><g><rect fill="white" stroke="none" x="86.38045168207032" y="746.0287347109999" width="106.59857429566406" height="16.988611432000003"/></g><text fill="black" stroke="none" font-family="sans-serif" font-size="8.8pt" font-style="normal" font-weight="bold" text-decoration="normal" x="88.83073217707032" y="757.7900810869999" text-anchor="start" dominant-baseline="alphabetic" xml:space="preserve">[ Trials is equal 3 ]</text></g><g/><g/></g><g/><g/><g/></g></svg>